<svg xmlns="http://www.w3.org/2000/svg" version="1.1" xmlns:xlink="http://www.w3.org/1999/xlink" width="37" height="33"><svg width="37" height="33" viewBox="0 0 37 33" fill="none" xmlns="http://www.w3.org/2000/svg">
<path d="M29.4874 3.00873C29.5278 3.07863 29.5319 3.16373 29.4985 3.23721L26.2954 10.2826C26.2158 10.4578 26.3556 10.6535 26.5472 10.6349L33.3398 9.97456C33.4374 9.96507 33.5315 10.0135 33.5805 10.0984L36.9278 15.8965C36.9725 15.9738 36.9725 16.0691 36.9278 16.1465L35.1913 19.1533C35.1509 19.2232 35.0793 19.2693 34.999 19.2771L27.4574 20.0099C27.2658 20.0285 27.1663 20.2475 27.2782 20.4041L31.1623 25.8388C31.2193 25.9185 31.2244 26.0242 31.1754 26.1091L27.8222 31.9189C27.7775 31.9963 27.695 32.0439 27.6056 32.0439H24.1482C24.0674 32.0439 23.9917 32.005 23.9447 31.9393L19.615 25.8797C19.5032 25.7231 19.2637 25.7464 19.184 25.9216L16.467 31.8974C16.4264 31.9867 16.3375 32.0439 16.2394 32.0439H9.39431C9.30501 32.0439 9.22249 31.9963 9.17782 31.919L7.5253 29.0577C7.48491 28.9878 7.48079 28.9027 7.51423 28.8292L10.6107 22.0231C10.6904 21.8479 10.5505 21.6522 10.359 21.6708L3.7979 22.3077C3.70033 22.3172 3.60623 22.2687 3.55723 22.1838L0.072129 16.1464C0.0274929 16.0691 0.0274825 15.9739 0.0721017 15.8965L1.65249 13.1574C1.69284 13.0874 1.7645 13.0413 1.84488 13.0335L9.44782 12.2957C9.63939 12.2771 9.73898 12.0581 9.62707 11.9015L5.71079 6.42199C5.65379 6.34223 5.64866 6.23651 5.69769 6.1516L9.17783 0.124982C9.22249 0.0476419 9.30501 0 9.39432 0H12.5706C12.6513 0 12.7271 0.0389822 12.774 0.104668L17.2902 6.42595C17.4021 6.58255 17.6416 6.5593 17.7212 6.3841L20.5574 0.146522C20.598 0.0572886 20.687 0 20.785 0H27.6057C27.695 0 27.7775 0.0476416 27.8222 0.124981L29.4874 3.00873Z" fill="#440EB3"></path>
</svg><style>@media (prefers-color-scheme: light) { :root { filter: none; } }
@media (prefers-color-scheme: dark) { :root { filter: none; } }
</style></svg>